<svg width="800" height="800" viewBox="0 0 800 800" fill="none" xmlns="http://www.w3.org/2000/svg">
<path d="M568 240.222L487.411 773.036H327.753L235 240.222H568Z" fill="#B8A492"/>
<path d="M540 453L472.479 777H338.712L261 453H540Z" fill="#968677"/>
<path d="M289.001 617.424H512.876L495.886 775.423H306.991L289.001 617.424Z" fill="#706357"/>
<rect width="633.186" height="26.5254" rx="13.2627" transform="matrix(-0.112281 0.993677 0.993677 0.112281 552.642 164.106)" fill="#323232"/>
<rect x="248.357" y="164.106" width="633.024" height="26.5254" rx="13.2627" transform="rotate(83.5532 248.357 164.106)" fill="#323232"/>
<rect x="223.151" y="164.106" width="354.056" height="26.5254" rx="13.2627" fill="#323232"/>
<rect x="293.502" y="768.423" width="215.663" height="26.5254" rx="13.2627" fill="#323232"/>
<rect x="514.529" y="8.14722" width="561.449" height="26.4526" rx="4.61311" transform="rotate(102 514.529 8.14722)" fill="#323232"/>
<circle cx="459.571" cy="731.518" r="23.0655" fill="#323232"/>
<circle cx="459.571" cy="661.168" r="23.0655" fill="#323232"/>
<circle cx="337.326" cy="731.518" r="23.0655" fill="#323232"/>
<circle cx="348.859" cy="677.314" r="23.0655" fill="#323232"/>
<circle cx="401.91" cy="713.066" r="23.0655" fill="#323232"/>
</svg>
