<svg width="800" height="793" viewBox="0 0 800 793" fill="none" xmlns="http://www.w3.org/2000/svg">
<g clip-path="url(#clip0_2454_457)">
<path d="M568 235L486.201 773H315.261L230 235H568Z" fill="#FF3636"/>
<path d="M289.001 610.424H512.876L495.886 768.423H306.991L289.001 610.424Z" fill="#C72A2A" fill-opacity="0.63"/>
<rect width="633.186" height="26.5254" rx="13.2627" transform="matrix(-0.112281 0.993677 0.993677 0.112281 552.642 164.106)" fill="#323232"/>
<rect x="248.357" y="164.106" width="633.024" height="26.5254" rx="13.2627" transform="rotate(83.5532 248.357 164.106)" fill="#323232"/>
<rect x="223.151" y="164.106" width="354.056" height="26.5254" rx="13.2627" fill="#323232"/>
<rect x="293.502" y="768.423" width="215.663" height="26.5254" rx="13.2627" fill="#323232"/>
<rect x="514.529" y="8.14746" width="561.449" height="26.4526" rx="4.61311" transform="rotate(102 514.529 8.14746)" fill="#323232"/>
<circle cx="349" cy="677" r="27" fill="#C8C8C8"/>
<path d="M361.281 693C361.281 693.538 360.819 694.997 361.079 695.397C361.386 695.867 363.264 695.706 363.026 696.492C362.905 696.895 361.56 698.249 361.969 698.54C362.478 698.901 363.403 698.718 364 699" stroke="#C72A2A" stroke-width="1.2" stroke-linecap="round"/>
<path d="M369 676.788C370.145 676.803 371.217 676.888 372.344 676.995C372.96 677.054 373.048 676.56 373.122 676.197C373.223 675.705 373.177 675.213 373.2 674.719C373.217 674.351 373.416 674.486 373.744 674.35C374.531 674.024 374.6 673.259 374.6 672.665C374.6 672.172 375.5 672.127 376 672" stroke="#C72A2A" stroke-width="0.8" stroke-linecap="round"/>
<path d="M355.462 664C356.088 663.432 357.627 659.049 356.721 658.526C356.128 658.184 354.712 657.673 355.052 656.474C355.562 654.676 355.462 652.907 355.462 651" stroke="#C72A2A" stroke-linecap="round"/>
<path d="M330 683C328.741 682.844 327.05 682.738 325.889 682.218C325.361 681.981 325.714 680.148 325.593 679.635C325.352 678.619 322.845 679.127 322 679.127" stroke="#C72A2A" stroke-width="0.8" stroke-linecap="round"/>
<circle cx="347.5" cy="680.5" r="16.5" fill="#479AC9"/>
<circle cx="347.5" cy="680.5" r="7.7" fill="#494949"/>
<circle cx="388.999" cy="737" r="27" transform="rotate(168 388.999 737)" fill="#C8C8C8"/>
<path d="M376.529 727.137C376.021 726.258 375.045 723.644 374.443 723.122C373.734 722.507 372.26 723.709 371.724 722.306C371.45 721.588 371.337 718.703 370.709 718.433C369.928 718.098 369.3 718.86 368.516 718.697" stroke="#C72A2A" stroke-width="0.8" stroke-linecap="round"/>
<path d="M369.481 741.365C368.358 741.589 367.291 741.728 366.166 741.858C365.551 741.929 365.568 742.43 365.571 742.8C365.575 743.302 365.722 743.774 365.802 744.262C365.862 744.626 365.64 744.535 365.347 744.737C364.645 745.219 364.737 745.981 364.86 746.563C364.963 747.045 364.092 747.276 363.629 747.504" stroke="#C72A2A" stroke-width="0.8" stroke-linecap="round"/>
<path d="M386.837 757.906C386.279 758.293 385.194 760.592 386.13 760.639C386.743 760.67 388.178 760.607 387.96 761.219C387.633 762.136 387.901 762.915 388.084 763.775" stroke="#C72A2A" stroke-linecap="round"/>
<path d="M405.359 727.389C406.776 727.247 408.659 726.955 410.045 727.193C410.675 727.3 410.668 729.176 410.908 729.649C411.384 730.587 414.038 729.504 414.967 729.306" stroke="#C72A2A" stroke-width="0.8" stroke-linecap="round"/>
<circle cx="391.57" cy="738.57" r="16.5" transform="rotate(168 391.57 738.57)" fill="#855E5E"/>
<circle cx="391.57" cy="738.57" r="7.7" transform="rotate(168 391.57 738.57)" fill="#323232"/>
<circle cx="454.999" cy="692.999" r="27" transform="rotate(46 454.999 692.999)" fill="#C8C8C8"/>
<path d="M454.996 706.696C454.507 707.796 452.759 710.593 452.633 711.517C452.485 712.603 454.348 713.037 453.416 714.548C452.939 715.322 450.478 717.547 450.588 718.307C450.724 719.252 451.736 719.253 452.025 720.074" stroke="#C72A2A" stroke-width="1.2" stroke-linecap="round"/>
<path d="M469.044 707.239C469.829 708.073 470.512 708.903 471.219 709.788C471.605 710.272 472.021 709.992 472.333 709.793C472.757 709.524 473.079 709.149 473.45 708.823C473.727 708.579 473.768 708.816 474.094 708.958C474.875 709.297 475.473 708.816 475.9 708.403C476.255 708.06 476.913 708.676 477.351 708.948" stroke="#C72A2A" stroke-width="0.8" stroke-linecap="round"/>
<path d="M473.875 683.755C474.498 684.022 477.023 683.725 476.567 682.906C476.269 682.369 475.455 681.186 476.089 681.047C477.04 680.838 477.558 680.198 478.191 679.587" stroke="#C72A2A" stroke-linecap="round"/>
<path d="M438.179 684.219C437.308 683.092 436.063 681.65 435.529 680.348C435.287 679.757 436.881 678.769 437.155 678.315C437.698 677.415 435.374 675.738 434.714 675.054" stroke="#C72A2A" stroke-width="0.8" stroke-linecap="round"/>
<circle cx="455.331" cy="688.331" r="16.5" transform="rotate(46 455.331 688.331)" fill="#5C9662"/>
<circle cx="455.331" cy="688.331" r="7.7" transform="rotate(46 455.331 688.331)" fill="#494949"/>
</g>
<defs>
<clipPath id="clip0_2454_457">
<rect width="800" height="793" fill="white"/>
</clipPath>
</defs>
</svg>
