<svg width="800" height="800" viewBox="0 0 800 800" fill="none" xmlns="http://www.w3.org/2000/svg">
<path d="M568 235L487.411 767.814H319L235 235H568Z" fill="#FF3636"/>
<path d="M289.001 610.424H512.876L495.886 768.423H306.991L289.001 610.424Z" fill="#C72A2A"/>
<rect width="633.186" height="26.5254" rx="13.2627" transform="matrix(-0.112281 0.993677 0.993677 0.112281 552.642 164.106)" fill="#323232"/>
<rect x="248.357" y="164.106" width="633.024" height="26.5254" rx="13.2627" transform="rotate(83.5532 248.357 164.106)" fill="#323232"/>
<rect x="223.151" y="164.106" width="354.056" height="26.5254" rx="13.2627" fill="#323232"/>
<rect x="293.502" y="768.423" width="215.663" height="26.5254" rx="13.2627" fill="#323232"/>
<rect x="514.529" y="8.14746" width="561.449" height="26.4526" rx="4.61311" transform="rotate(102 514.529 8.14746)" fill="#323232"/>
<circle cx="459.571" cy="731.518" r="23.0655" fill="#C8C8C8"/>
<circle cx="459.571" cy="661.168" r="23.0655" fill="#C8C8C8"/>
<circle cx="337.326" cy="731.518" r="23.0655" fill="#C8C8C8"/>
<circle cx="401.91" cy="713.066" r="23.0655" fill="#C8C8C8"/>
<circle cx="348.859" cy="677.314" r="23.0655" fill="#C8C8C8"/>
<circle cx="349" cy="677" r="19" fill="#479AC9"/>
<circle cx="349" cy="677" r="9" fill="#494949"/>
<circle cx="402.066" cy="713.066" r="23.0655" fill="#C8C8C8"/>
<circle cx="402.207" cy="712.751" r="19" fill="#784D4D"/>
<circle cx="402.207" cy="712.751" r="9" fill="#2E2E2E"/>
<circle cx="337.066" cy="732.066" r="23.0655" fill="#C8C8C8"/>
<circle cx="337.207" cy="731.751" r="19" fill="#784D4D"/>
<circle cx="337.207" cy="731.751" r="9" fill="#2E2E2E"/>
<circle cx="460.066" cy="731.066" r="23.0655" fill="#C8C8C8"/>
<circle cx="460.207" cy="730.751" r="19" fill="#479AC9"/>
<circle cx="460.207" cy="730.751" r="9" fill="#494949"/>
<circle cx="460.066" cy="661.066" r="23.0655" fill="#C8C8C8"/>
<circle cx="460.207" cy="660.751" r="19" fill="#5CA543"/>
<circle cx="460.207" cy="660.751" r="9" fill="#494949"/>
</svg>
