<svg width="330" height="735" viewBox="0 0 330 735" fill="none" xmlns="http://www.w3.org/2000/svg">
<path d="M319.835 220.045L245.34 712.57H97.755L12.0151 220.045H319.835Z" fill="#82F3C7"/>
<path d="M61.9312 562.254H268.878L253.172 708.306H78.5608L61.9312 562.254Z" fill="#60C49D"/>
<rect width="585.308" height="24.5196" rx="12.2598" transform="matrix(-0.112281 0.993677 0.993677 0.112281 305.635 149.685)" fill="#323232"/>
<rect x="24.3643" y="149.685" width="585.158" height="24.5196" rx="12.2598" transform="rotate(83.5532 24.3643 149.685)" fill="#323232"/>
<rect x="1.06152" y="149.685" width="327.284" height="24.5196" rx="12.2598" fill="#323232"/>
<rect x="66.0898" y="708.307" width="199.355" height="24.5196" rx="12.2598" fill="#323232"/>
<rect x="270.405" y="5.52246" width="518.995" height="24.4524" rx="6.49599" transform="rotate(102 270.405 5.52246)" fill="#323232"/>
<circle cx="219.603" cy="674.192" r="21.3214" fill="#323232"/>
<circle cx="219.603" cy="609.161" r="21.3214" fill="#323232"/>
<circle cx="106.604" cy="674.192" r="21.3214" fill="#323232"/>
<circle cx="117.26" cy="624.086" r="21.3214" fill="#323232"/>
<circle cx="166.299" cy="657.134" r="21.3214" fill="#323232"/>
</svg>
