<svg width="438" height="202" viewBox="0 0 438 202" fill="none" xmlns="http://www.w3.org/2000/svg">
<path d="M9.37951 92.9814C6.77423 92.9814 4.67321 92.3932 3.07643 91.2166C1.56369 90.04 0.807322 88.6533 0.807322 87.0566V6.88143C0.807322 4.86445 1.68975 3.35171 3.45461 2.34322C5.30352 1.33473 7.27848 0.830482 9.37951 0.830482H35.2221C39.4242 0.830482 43.4581 1.46079 47.324 2.7214C51.1899 3.98202 54.3414 6.25112 56.7786 9.52872C59.2158 12.7223 60.4344 17.3025 60.4344 23.2694C60.4344 28.3959 59.4679 32.64 57.535 36.0016C55.6861 39.2792 53.0808 41.6324 49.7192 43.0611C52.3245 43.9855 54.5936 45.2462 56.5265 46.8429C58.4595 48.3557 59.9722 50.4147 61.0647 53.0199C62.1573 55.6252 62.7035 59.0289 62.7035 63.2309V65.8782C62.7035 72.5175 61.569 77.812 59.2999 81.762C57.1148 85.7119 54.0893 88.5693 50.2234 90.3342C46.4416 92.099 42.1555 92.9814 37.3652 92.9814H9.37951ZM20.3469 75.8371H32.953C36.1466 75.8371 38.6258 74.9126 40.3906 73.0637C42.1555 71.2148 43.0379 68.2734 43.0379 64.2394V62.2224C43.0379 57.9363 42.1555 54.9529 40.3906 53.2721C38.6258 51.5072 36.1466 50.6248 32.953 50.6248H20.3469V75.8371ZM20.3469 35.4974H33.5833C36.0205 35.4974 37.8274 34.5729 39.004 32.724C40.1805 30.8751 40.7688 28.9002 40.7688 26.7991C40.7688 25.2864 40.4747 23.8577 39.8864 22.5131C39.3821 21.1684 38.5838 20.0759 37.4912 19.2355C36.4827 18.395 35.1801 17.9748 33.5833 17.9748H20.3469V35.4974ZM99.0427 93.7378C93.2439 93.7378 87.9913 92.7713 83.285 90.8384C78.6628 88.9055 74.965 85.7539 72.1916 81.3838C69.5023 77.0137 68.1577 71.2148 68.1577 63.9873V30.581C68.1577 23.3535 69.5023 17.5546 72.1916 13.1845C74.965 8.81437 78.6628 5.66284 83.285 3.7299C87.9913 1.79695 93.2439 0.830482 99.0427 0.830482C104.842 0.830482 110.094 1.79695 114.8 3.7299C119.507 5.66284 123.205 8.81437 125.894 13.1845C128.667 17.5546 130.054 23.3535 130.054 30.581V63.9873C130.054 71.2148 128.667 77.0137 125.894 81.3838C123.205 85.7539 119.507 88.9055 114.8 90.8384C110.094 92.7713 104.842 93.7378 99.0427 93.7378ZM99.0427 76.5934C102.572 76.5934 105.346 75.585 107.363 73.568C109.38 71.551 110.388 68.3574 110.388 63.9873V30.581C110.388 26.2109 109.38 23.0173 107.363 21.0003C105.346 18.9833 102.572 17.9748 99.0427 17.9748C95.513 17.9748 92.7397 18.9833 90.7227 21.0003C88.7897 23.0173 87.8233 26.2109 87.8233 30.581V63.9873C87.8233 68.3574 88.7897 71.551 90.7227 73.568C92.7397 75.585 95.513 76.5934 99.0427 76.5934ZM147.451 92.9814C144.846 92.9814 142.745 92.3932 141.148 91.2166C139.636 90.04 138.879 88.6533 138.879 87.0566V6.88143C138.879 4.86445 139.762 3.35171 141.526 2.34322C143.375 1.33473 145.35 0.830482 147.451 0.830482H173.294C177.496 0.830482 181.53 1.46079 185.396 2.7214C189.262 3.98202 192.413 6.25112 194.85 9.52872C197.288 12.7223 198.506 17.3025 198.506 23.2694C198.506 28.3959 197.54 32.64 195.607 36.0016C193.758 39.2792 191.153 41.6324 187.791 43.0611C190.396 43.9855 192.665 45.2462 194.598 46.8429C196.531 48.3557 198.044 50.4147 199.137 53.0199C200.229 55.6252 200.775 59.0289 200.775 63.2309V65.8782C200.775 72.5175 199.641 77.812 197.372 81.762C195.187 85.7119 192.161 88.5693 188.295 90.3342C184.513 92.099 180.227 92.9814 175.437 92.9814H147.451ZM158.419 75.8371H171.025C174.218 75.8371 176.698 74.9126 178.462 73.0637C180.227 71.2148 181.11 68.2734 181.11 64.2394V62.2224C181.11 57.9363 180.227 54.9529 178.462 53.2721C176.698 51.5072 174.218 50.6248 171.025 50.6248H158.419V75.8371ZM158.419 35.4974H171.655C174.092 35.4974 175.899 34.5729 177.076 32.724C178.252 30.8751 178.841 28.9002 178.841 26.7991C178.841 25.2864 178.547 23.8577 177.958 22.5131C177.454 21.1684 176.656 20.0759 175.563 19.2355C174.555 18.395 173.252 17.9748 171.655 17.9748H158.419V35.4974ZM213.541 92.9814C211.776 92.9814 209.885 92.6453 207.868 91.973C205.935 91.2166 204.297 90.2501 202.952 89.0735C201.607 87.8129 200.935 86.4262 200.935 84.9135C200.935 84.6614 201.019 84.1992 201.187 83.5268L224.634 6.6293C225.307 4.44424 226.904 2.80544 229.425 1.71291C231.946 0.620375 234.635 0.0741077 237.493 0.0741077C240.434 0.0741077 243.123 0.620375 245.561 1.71291C248.082 2.80544 249.679 4.44424 250.351 6.6293L273.925 83.5268C274.093 84.1992 274.177 84.6614 274.177 84.9135C274.177 86.4262 273.504 87.8129 272.16 89.0735C270.815 90.2501 269.176 91.2166 267.243 91.973C265.31 92.6453 263.419 92.9814 261.57 92.9814C259.974 92.9814 258.587 92.7293 257.41 92.2251C256.318 91.6368 255.562 90.6703 255.141 89.3257L250.855 73.568H224.256L219.97 89.3257C219.634 90.6703 218.878 91.6368 217.701 92.2251C216.525 92.7293 215.138 92.9814 213.541 92.9814ZM228.29 58.4406H246.695L237.493 24.6561L228.29 58.4406ZM9.51398 199.981C6.88593 199.981 4.76653 199.388 3.15579 198.201C1.62982 197.014 0.866842 195.615 0.866842 194.005V113.129C0.866842 111.094 1.75699 109.568 3.53728 108.551C5.40235 107.533 7.39458 107.025 9.51398 107.025H35.5825C39.8213 107.025 43.8906 107.661 47.7903 108.932C51.69 110.204 54.869 112.493 57.3275 115.799C59.786 119.021 61.0153 123.641 61.0153 129.66C61.0153 134.831 60.0404 139.112 58.0905 142.503C56.2255 145.81 53.5974 148.183 50.2064 149.625C52.8344 150.557 55.1234 151.829 57.0732 153.44C59.0231 154.965 60.549 157.042 61.6511 159.671C62.7532 162.299 63.3042 165.732 63.3042 169.971V172.641C63.3042 179.339 62.1598 184.679 59.8708 188.664C57.6666 192.648 54.6147 195.531 50.715 197.311C46.9001 199.091 42.5766 199.981 37.7443 199.981H9.51398ZM20.5772 182.687H33.2936C36.5151 182.687 39.016 181.755 40.7963 179.89C42.5766 178.025 43.4667 175.057 43.4667 170.988V168.953C43.4667 164.63 42.5766 161.62 40.7963 159.925C39.016 158.145 36.5151 157.254 33.2936 157.254H20.5772V182.687ZM20.5772 141.995H33.9294C36.3879 141.995 38.2106 141.062 39.3975 139.197C40.5843 137.332 41.1778 135.34 41.1778 133.22C41.1778 131.695 40.881 130.253 40.2876 128.897C39.7789 127.54 38.9736 126.438 37.8715 125.591C36.8542 124.743 35.5402 124.319 33.9294 124.319H20.5772V141.995ZM101.487 200.744C95.4681 200.744 90.0424 199.77 85.2102 197.82C80.378 195.87 76.5207 192.691 73.6383 188.282C70.8407 183.874 69.4419 178.025 69.4419 170.734V113.001C69.4419 110.882 70.4592 109.356 72.4938 108.424C74.5284 107.491 76.8174 107.025 79.3607 107.025C81.8192 107.025 84.0657 107.491 86.1003 108.424C88.2197 109.356 89.2794 110.882 89.2794 113.001V170.734C89.2794 175.057 90.3391 178.279 92.4585 180.398C94.6627 182.433 97.6722 183.45 101.487 183.45C105.302 183.45 108.269 182.433 110.389 180.398C112.593 178.279 113.695 175.057 113.695 170.734V113.001C113.695 110.882 114.712 109.356 116.747 108.424C118.781 107.491 121.07 107.025 123.614 107.025C126.072 107.025 128.319 107.491 130.353 108.424C132.473 109.356 133.532 110.882 133.532 113.001V170.734C133.532 178.025 132.091 183.874 129.209 188.282C126.411 192.691 122.596 195.87 117.764 197.82C112.932 199.77 107.506 200.744 101.487 200.744ZM151.773 199.981C149.145 199.981 147.026 199.388 145.415 198.201C143.889 197.014 143.126 195.615 143.126 194.005V113.001C143.126 111.391 143.889 109.992 145.415 108.805C147.026 107.618 149.145 107.025 151.773 107.025H174.281C180.131 107.025 185.429 108 190.177 109.95C194.924 111.899 198.654 115.078 201.367 119.487C204.165 123.895 205.564 129.745 205.564 137.035V169.971C205.564 177.262 204.165 183.111 201.367 187.519C198.654 191.928 194.924 195.107 190.177 197.057C185.429 199.007 180.131 199.981 174.281 199.981H151.773ZM162.964 182.687H174.281C177.842 182.687 180.64 181.67 182.674 179.635C184.709 177.516 185.726 174.294 185.726 169.971V137.035C185.726 132.712 184.709 129.533 182.674 127.498C180.64 125.379 177.842 124.319 174.281 124.319H162.964V182.687ZM222.965 199.981C220.337 199.981 218.218 199.388 216.607 198.201C215.081 197.014 214.318 195.615 214.318 194.005V113.001C214.318 111.391 215.081 109.992 216.607 108.805C218.218 107.618 220.337 107.025 222.965 107.025H245.473C251.323 107.025 256.621 108 261.369 109.95C266.116 111.899 269.846 115.078 272.559 119.487C275.357 123.895 276.756 129.745 276.756 137.035V169.971C276.756 177.262 275.357 183.111 272.559 187.519C269.846 191.928 266.116 195.107 261.369 197.057C256.621 199.007 251.323 199.981 245.473 199.981H222.965ZM234.156 182.687H245.473C249.034 182.687 251.831 181.67 253.866 179.635C255.901 177.516 256.918 174.294 256.918 169.971V137.035C256.918 132.712 255.901 129.533 253.866 127.498C251.831 125.379 249.034 124.319 245.473 124.319H234.156V182.687ZM295.429 199.981C292.97 199.981 290.681 199.473 288.562 198.455C286.527 197.438 285.51 195.912 285.51 193.878V113.001C285.51 110.882 286.527 109.356 288.562 108.424C290.681 107.491 292.97 107.025 295.429 107.025C297.887 107.025 300.134 107.491 302.168 108.424C304.288 109.356 305.348 110.882 305.348 113.001V193.878C305.348 195.912 304.288 197.438 302.168 198.455C300.134 199.473 297.887 199.981 295.429 199.981ZM323.872 199.981C321.752 199.981 319.76 199.473 317.895 198.455C316.115 197.438 315.225 195.912 315.225 193.878V113.129C315.225 111.094 316.115 109.568 317.895 108.551C319.76 107.533 321.752 107.025 323.872 107.025H369.142C371.261 107.025 372.787 107.957 373.72 109.822C374.652 111.603 375.119 113.51 375.119 115.545C375.119 117.918 374.61 119.995 373.593 121.776C372.575 123.471 371.092 124.319 369.142 124.319H335.062V145.81H354.137C356.087 145.81 357.57 146.615 358.587 148.226C359.605 149.752 360.113 151.532 360.113 153.567C360.113 155.262 359.647 156.958 358.715 158.653C357.782 160.264 356.256 161.069 354.137 161.069H335.062V182.687H369.142C371.092 182.687 372.575 183.577 373.593 185.358C374.61 187.053 375.119 189.088 375.119 191.461C375.119 193.496 374.652 195.446 373.72 197.311C372.787 199.091 371.261 199.981 369.142 199.981H323.872ZM406.155 201.253C400.644 201.253 395.558 200.448 390.895 198.837C386.232 197.226 382.502 195.192 379.705 192.733C376.907 190.19 375.508 187.519 375.508 184.722C375.508 183.281 375.89 181.755 376.653 180.144C377.416 178.448 378.433 177.007 379.705 175.82C381.061 174.633 382.545 174.04 384.155 174.04C385.681 174.04 387.08 174.506 388.352 175.439C389.708 176.371 391.149 177.473 392.675 178.745C394.286 180.017 396.109 181.119 398.143 182.051C400.263 182.984 402.806 183.45 405.773 183.45C407.723 183.45 409.63 183.196 411.495 182.687C413.445 182.094 415.014 181.204 416.201 180.017C417.472 178.745 418.108 177.092 418.108 175.057C418.108 172.853 417.387 170.988 415.946 169.462C414.505 167.851 412.555 166.41 410.097 165.139C407.723 163.867 405.095 162.595 402.213 161.324C399.415 159.967 396.575 158.526 393.693 157C390.81 155.389 388.14 153.524 385.681 151.405C383.307 149.201 381.4 146.573 379.959 143.521C378.518 140.469 377.797 136.823 377.797 132.585C377.797 127.837 378.73 123.81 380.595 120.504C382.46 117.113 384.961 114.4 388.097 112.366C391.234 110.246 394.71 108.72 398.525 107.788C402.424 106.77 406.367 106.262 410.351 106.262C412.047 106.262 414.293 106.389 417.091 106.643C419.888 106.898 422.686 107.406 425.483 108.169C428.366 108.932 430.782 110.077 432.732 111.603C434.682 113.044 435.657 114.994 435.657 117.452C435.657 118.554 435.36 119.953 434.766 121.649C434.258 123.259 433.41 124.701 432.223 125.972C431.121 127.244 429.637 127.88 427.772 127.88C426.246 127.88 424.805 127.498 423.449 126.735C422.177 125.887 420.524 125.082 418.489 124.319C416.54 123.471 413.827 123.047 410.351 123.047C407.384 123.047 404.925 123.429 402.975 124.192C401.11 124.87 399.754 125.803 398.906 126.989C398.058 128.092 397.635 129.321 397.635 130.677C397.635 132.457 398.355 134.026 399.796 135.382C401.238 136.654 403.145 137.883 405.519 139.07C407.977 140.172 410.605 141.359 413.403 142.631C416.285 143.817 419.168 145.259 422.05 146.954C424.932 148.565 427.56 150.515 429.934 152.804C432.393 155.093 434.343 157.89 435.784 161.197C437.225 164.503 437.946 168.445 437.946 173.023C437.946 179.127 436.547 184.298 433.749 188.537C431.036 192.691 427.306 195.87 422.559 198.074C417.811 200.193 412.343 201.253 406.155 201.253Z" fill="white"/>
</svg>
