<svg width="1440" height="1050" viewBox="0 0 1440 1050" fill="none" xmlns="http://www.w3.org/2000/svg">
<g clip-path="url(#clip0_0_3)">
<rect width="1440" height="1050" fill="#FFC5C7"/>
<path d="M1640 15.0812C1640 123.965 1502.25 235 1347.36 235C1192.47 235 1088.18 166.813 1088.18 57.9292C1088.18 -50.9543 900.335 -210 1055.22 -210C1210.11 -210 1640 -93.8024 1640 15.0812Z" fill="#9896FA"/>
<path d="M784 1065.5C738 1293.5 368.795 1293.5 125.5 1293.5C-117.795 1293.5 -244.5 762.816 -244.5 522C-244.5 281.184 89.7051 650 333 650C576.295 650 784 824.684 784 1065.5Z" fill="#9B99FF"/>
<path d="M589.836 376.045L515.34 868.57H367.755L282.015 376.045H589.836Z" fill="#82F3C7"/>
<path d="M331.932 718.254H538.878L523.173 864.306H348.561L331.932 718.254Z" fill="#60C49D"/>
<rect width="585.308" height="24.5196" rx="12.2598" transform="matrix(-0.112281 0.993677 0.993677 0.112281 575.635 305.685)" fill="#323232"/>
<rect x="294.364" y="305.685" width="585.158" height="24.5196" rx="12.2598" transform="rotate(83.5532 294.364 305.685)" fill="#323232"/>
<rect x="271.062" y="305.685" width="327.284" height="24.5196" rx="12.2598" fill="#323232"/>
<rect x="336.09" y="864.306" width="199.355" height="24.5196" rx="12.2598" fill="#323232"/>
<rect x="540.405" y="161.523" width="518.995" height="24.4524" rx="6.49599" transform="rotate(102 540.405 161.523)" fill="#323232"/>
<circle cx="489.603" cy="830.192" r="21.3214" fill="#323232"/>
<circle cx="489.603" cy="765.161" r="21.3214" fill="#323232"/>
<circle cx="376.604" cy="830.192" r="21.3214" fill="#323232"/>
<circle cx="387.26" cy="780.086" r="21.3214" fill="#323232"/>
<circle cx="436.299" cy="813.135" r="21.3214" fill="#323232"/>
</g>
<defs>
<clipPath id="clip0_0_3">
<rect width="1440" height="1050" fill="white"/>
</clipPath>
</defs>
</svg>
